<?xml version="1.0" encoding="utf-8"?>
<!-- Generator: Adobe Illustrator 16.0.0, SVG Export Plug-In . SVG Version: 6.00 Build 0)  -->
<!DOCTYPE svg PUBLIC "-//W3C//DTD SVG 1.1//EN" "http://www.w3.org/Graphics/SVG/1.1/DTD/svg11.dtd">
<svg version="1.1" id="Layer_2" xmlns="http://www.w3.org/2000/svg" xmlns:xlink="http://www.w3.org/1999/xlink" x="0px" y="0px"
	 width="341.709px" height="150.605px" viewBox="0 0 341.709 150.605" enable-background="new 0 0 341.709 150.605"
	 xml:space="preserve">
<g>
	<g>
		<path fill="#FFFFFF" d="M137.877,48.673h15.17v2.314h-6.331v15.872h-2.613V50.987h-6.227V48.673z"/>
		<path fill="#FFFFFF" d="M155.504,48.699H165.8v2.314h-7.696v5.538h7.436v2.327h-7.436v5.642h7.943v2.314h-10.542V48.699z"/>
		<path fill="#FFFFFF" d="M184.467,62.647v2.86c-1.907,1.04-4.108,1.56-6.604,1.56c-2.028,0-3.748-0.407-5.161-1.222
			c-1.413-0.815-2.531-1.937-3.354-3.367c-0.823-1.43-1.235-2.977-1.235-4.641c0-2.643,0.942-4.866,2.828-6.669
			c1.885-1.802,4.209-2.704,6.974-2.704c1.906,0,4.025,0.498,6.356,1.495v2.795c-2.123-1.213-4.199-1.82-6.227-1.82
			c-2.08,0-3.807,0.657-5.18,1.97c-1.374,1.312-2.061,2.957-2.061,4.933c0,1.993,0.676,3.631,2.028,4.914
			c1.352,1.283,3.081,1.924,5.187,1.924C180.221,64.676,182.37,64,184.467,62.647z"/>
		<path fill="#FFFFFF" d="M200.47,48.699h2.6v18.16h-2.6v-7.903h-10.205v7.903h-2.6v-18.16h2.6v7.852h10.205V48.699z"/>
		<path fill="#FFFFFF" d="M221.503,48.699h2.47v18.16h-2.236l-12.142-13.986v13.986h-2.444v-18.16h2.106l12.246,14.105V48.699z"/>
		<path fill="#FFFFFF" d="M236.771,48.439c2.806,0,5.143,0.888,7.009,2.665c1.866,1.777,2.799,4.004,2.799,6.682
			c0,2.678-0.941,4.895-2.825,6.649s-4.259,2.632-7.126,2.632c-2.736,0-5.017-0.877-6.84-2.632s-2.734-3.954-2.734-6.597
			c0-2.712,0.917-4.957,2.753-6.734C231.644,49.328,233.965,48.439,236.771,48.439z M236.875,50.909c-2.078,0-3.786,0.65-5.124,1.95
			c-1.338,1.3-2.006,2.96-2.006,4.979c0,1.958,0.671,3.588,2.013,4.888c1.342,1.3,3.022,1.95,5.039,1.95
			c2.026,0,3.717-0.663,5.072-1.989c1.354-1.326,2.032-2.977,2.032-4.953c0-1.924-0.678-3.542-2.032-4.855
			C240.513,51.565,238.848,50.909,236.875,50.909z"/>
		<path fill="#FFFFFF" d="M249.776,48.699h2.6v15.794h8.177v2.366h-10.777V48.699z"/>
		<path fill="#FFFFFF" d="M271.739,48.439c2.806,0,5.143,0.888,7.009,2.665c1.865,1.777,2.799,4.004,2.799,6.682
			c0,2.678-0.941,4.895-2.825,6.649s-4.26,2.632-7.126,2.632c-2.736,0-5.017-0.877-6.84-2.632s-2.734-3.954-2.734-6.597
			c0-2.712,0.917-4.957,2.754-6.734C266.612,49.328,268.934,48.439,271.739,48.439z M271.843,50.909c-2.078,0-3.786,0.65-5.124,1.95
			c-1.338,1.3-2.006,2.96-2.006,4.979c0,1.958,0.671,3.588,2.013,4.888c1.342,1.3,3.022,1.95,5.04,1.95
			c2.026,0,3.717-0.663,5.072-1.989c1.354-1.326,2.032-2.977,2.032-4.953c0-1.924-0.678-3.542-2.032-4.855
			C275.482,51.565,273.817,50.909,271.843,50.909z"/>
		<path fill="#FFFFFF" d="M294.56,57.916h6.097v7.696c-2.236,0.97-4.455,1.456-6.656,1.456c-3.007,0-5.41-0.877-7.208-2.632
			s-2.697-3.919-2.697-6.493c0-2.712,0.932-4.97,2.795-6.773c1.863-1.802,4.199-2.704,7.007-2.704c1.022,0,1.993,0.11,2.912,0.332
			c0.919,0.221,2.08,0.626,3.484,1.215v2.652c-2.167-1.256-4.316-1.885-6.448-1.885c-1.984,0-3.657,0.676-5.018,2.028
			c-1.361,1.352-2.041,3.012-2.041,4.979c0,2.063,0.68,3.749,2.041,5.057c1.36,1.309,3.111,1.963,5.252,1.963
			c1.04,0,2.283-0.238,3.73-0.715l0.247-0.078V60.23h-3.497V57.916z"/>
		<path fill="#FFFFFF" d="M315.375,48.699h3.155l-6.708,8.554v9.606h-2.665v-9.606l-6.708-8.554h3.138l4.861,6.261L315.375,48.699z"
			/>
		<path fill="#FFFFFF" d="M143.012,75.379V93.54h-3.51V75.379H143.012z"/>
		<path fill="#FFFFFF" d="M150.441,75.379l10.79,12.675V75.379h3.432V93.54h-3.016l-10.854-12.883V93.54h-3.432V75.379H150.441z"/>
		<path fill="#FFFFFF" d="M172,75.379l10.79,12.675V75.379h3.432V93.54h-3.016l-10.854-12.883V93.54h-3.432V75.379H172z"/>
		<path fill="#FFFFFF" d="M199.786,75.146c1.88,0,3.572,0.388,5.076,1.164c1.503,0.775,2.702,1.894,3.594,3.354
			c0.893,1.46,1.339,3.061,1.339,4.803c0,1.699-0.436,3.273-1.306,4.725c-0.871,1.452-2.067,2.579-3.588,3.38
			c-1.521,0.802-3.235,1.203-5.142,1.203c-1.88,0-3.59-0.407-5.128-1.222c-1.539-0.814-2.737-1.935-3.595-3.36
			c-0.858-1.425-1.287-3-1.287-4.725c0-1.664,0.429-3.228,1.287-4.693c0.858-1.464,2.041-2.602,3.549-3.413
			C196.094,75.551,197.827,75.146,199.786,75.146z M193.377,84.466c0,1.205,0.273,2.288,0.819,3.25s1.306,1.707,2.281,2.236
			c0.975,0.528,2.078,0.793,3.309,0.793c1.863,0,3.395-0.585,4.595-1.755s1.8-2.678,1.8-4.524c0-1.205-0.271-2.29-0.812-3.256
			s-1.304-1.714-2.288-2.243c-0.984-0.528-2.091-0.793-3.322-0.793c-1.23,0-2.337,0.267-3.321,0.8
			c-0.983,0.533-1.74,1.278-2.269,2.236C193.642,82.167,193.377,83.253,193.377,84.466z"/>
		<path fill="#FFFFFF" d="M214.651,75.379l5.135,11.661l5.005-11.661h3.679l-8.021,18.395h-1.222l-8.281-18.395H214.651z"/>
		<path fill="#FFFFFF" d="M237.939,75.379l8.021,18.161h-3.705l-1.885-4.42h-8.072l-1.755,4.42h-3.679l7.488-18.161H237.939z
			 M233.364,86.455h5.863l-3.068-7.188L233.364,86.455z"/>
		<path fill="#FFFFFF" d="M261.293,75.379v2.743h-6.448V93.54h-3.51V78.123h-6.448v-2.743H261.293z"/>
		<path fill="#FFFFFF" d="M267.811,75.379V93.54h-3.51V75.379H267.811z"/>
		<path fill="#FFFFFF" d="M281.467,75.146c1.88,0,3.573,0.388,5.076,1.164s2.702,1.894,3.594,3.354
			c0.893,1.46,1.339,3.061,1.339,4.803c0,1.699-0.435,3.273-1.306,4.725s-2.067,2.579-3.588,3.38
			c-1.521,0.802-3.235,1.203-5.141,1.203c-1.881,0-3.59-0.407-5.128-1.222c-1.539-0.814-2.736-1.935-3.594-3.36
			c-0.858-1.425-1.287-3-1.287-4.725c0-1.664,0.429-3.228,1.287-4.693c0.858-1.464,2.041-2.602,3.549-3.413
			C277.775,75.551,279.509,75.146,281.467,75.146z M275.059,84.466c0,1.205,0.273,2.288,0.819,3.25s1.306,1.707,2.281,2.236
			c0.975,0.528,2.078,0.793,3.309,0.793c1.863,0,3.395-0.585,4.595-1.755s1.8-2.678,1.8-4.524c0-1.205-0.271-2.29-0.812-3.256
			c-0.542-0.966-1.304-1.714-2.288-2.243c-0.984-0.528-2.091-0.793-3.321-0.793c-1.231,0-2.338,0.267-3.322,0.8
			c-0.983,0.533-1.74,1.278-2.268,2.236C275.323,82.167,275.059,83.253,275.059,84.466z"/>
		<path fill="#FFFFFF" d="M298.113,75.379l10.789,12.675V75.379h3.432V93.54h-3.016l-10.854-12.883V93.54h-3.432V75.379H298.113z"/>
		<path fill="#FFFFFF" d="M155.075,116.008v2.86c-1.907,1.04-4.108,1.56-6.604,1.56c-2.028,0-3.749-0.407-5.161-1.222
			c-1.413-0.814-2.53-1.937-3.354-3.367c-0.823-1.43-1.235-2.977-1.235-4.641c0-2.644,0.943-4.866,2.828-6.669
			s4.209-2.704,6.974-2.704c1.907,0,4.025,0.498,6.357,1.495v2.795c-2.124-1.213-4.199-1.82-6.227-1.82
			c-2.08,0-3.807,0.656-5.18,1.969s-2.061,2.958-2.061,4.934c0,1.993,0.676,3.631,2.028,4.914c1.352,1.283,3.081,1.924,5.187,1.924
			C150.829,118.036,152.978,117.36,155.075,116.008z"/>
		<path fill="#FFFFFF" d="M158.273,102.06h10.296v2.314h-7.696v5.538h7.436v2.327h-7.436v5.642h7.943v2.314h-10.543V102.06z"/>
		<path fill="#FFFFFF" d="M186.014,102.06h2.47v18.16h-2.236l-12.142-13.986v13.986h-2.444v-18.16h2.106l12.246,14.105V102.06z"/>
		<path fill="#FFFFFF" d="M190.824,102.034h15.17v2.313h-6.331v15.873h-2.613v-15.873h-6.227V102.034z"/>
		<path fill="#FFFFFF" d="M208.451,102.06h10.295v2.314h-7.695v5.538h7.436v2.327h-7.436v5.642h7.942v2.314h-10.542V102.06z"/>
		<path fill="#FFFFFF" d="M221.841,120.22v-18.16h4.55c1.837,0,3.295,0.455,4.374,1.365c1.079,0.91,1.619,2.141,1.619,3.692
			c0,1.057-0.264,1.972-0.793,2.743c-0.529,0.771-1.287,1.347-2.275,1.729c0.581,0.381,1.148,0.901,1.703,1.56
			c0.554,0.659,1.334,1.807,2.34,3.445c0.632,1.031,1.14,1.807,1.521,2.327l0.962,1.3h-3.094l-0.792-1.196
			c-0.026-0.043-0.078-0.117-0.156-0.222l-0.506-0.715l-0.805-1.327l-0.87-1.418c-0.537-0.746-1.029-1.339-1.476-1.78
			c-0.447-0.441-0.85-0.76-1.21-0.954c-0.361-0.194-0.965-0.292-1.815-0.292h-0.677v7.904H221.841z M225.221,104.27h-0.78v5.732
			h0.988c1.317,0,2.221-0.112,2.71-0.338c0.49-0.225,0.871-0.565,1.144-1.021s0.41-0.973,0.41-1.553c0-0.572-0.152-1.09-0.455-1.554
			c-0.303-0.463-0.73-0.791-1.28-0.981C227.407,104.365,226.495,104.27,225.221,104.27z"/>
	</g>
	<g>
		<path fill="#FFFFFF" d="M93.286,99.122c-2.86,0-5.187,2.328-5.187,5.19c0,2.353,1.571,4.341,3.719,4.976v8.118H65.595V88.222
			H36.51V76.658h43.687V65.6c2.147-0.636,3.72-2.624,3.72-4.975c0-2.862-2.33-5.192-5.192-5.192c-2.861,0-5.19,2.33-5.19,5.192
			c0,2.351,1.573,4.339,3.719,4.975v8.115H33.567v17.449h29.085v29.185H94.76v-11.056c2.33-0.674,3.719-2.893,3.719-4.98
			C98.479,101.45,96.149,99.122,93.286,99.122z M76.477,60.625c0-1.24,1.01-2.249,2.248-2.249c1.238,0,2.249,1.009,2.249,2.249
			c0,1.239-1.011,2.248-2.249,2.248C77.487,62.873,76.477,61.864,76.477,60.625z M93.286,106.561c-1.237,0-2.245-1.009-2.245-2.249
			c0-1.239,1.007-2.248,2.245-2.248c1.241,0,2.25,1.009,2.25,2.248C95.536,105.219,94.822,106.561,93.286,106.561z"/>
		<path fill="#FFFFFF" d="M94.76,59.149V36.476c2.33-0.673,3.719-2.893,3.719-4.979c0-2.862-2.327-5.19-5.188-5.19
			c-2.352,0-4.34,1.572-4.977,3.718H69.139c-0.637-2.146-2.623-3.718-4.973-3.718c-2.863,0-5.192,2.329-5.192,5.19
			c0,2.335,1.551,4.314,3.679,4.964v22.689h-22.64c-0.636-2.148-2.624-3.72-4.975-3.72c-2.861,0-5.19,2.329-5.19,5.19
			c0,2.863,2.329,5.191,5.19,5.191c2.352,0,4.339-1.572,4.975-3.72h25.583V36.482c1.698-0.489,3.041-1.821,3.543-3.514h19.176
			c0.497,1.679,1.823,3.004,3.503,3.503v25.621h29.399v26.13H94.76V76.829h8.17c0.691,2.058,2.634,3.548,4.923,3.548
			c3.206,0,5.19-2.695,5.19-5.19c0-2.862-2.327-5.19-5.19-5.19c-2.413,0-4.441,1.656-5.021,3.889H91.817v17.278h32.342V59.149H94.76
			z M35.037,62.869c-1.238,0-2.248-1.008-2.248-2.249c0-1.24,1.01-2.248,2.248-2.248c1.24,0,2.25,1.008,2.25,2.248
			C37.287,61.86,36.277,62.869,35.037,62.869z M64.166,33.744c-1.24,0-2.249-1.008-2.249-2.247c0-1.24,1.009-2.249,2.249-2.249
			c1.237,0,2.245,1.009,2.245,2.249C66.41,32.736,65.403,33.744,64.166,33.744z M91.041,31.497c0-1.24,1.011-2.249,2.25-2.249
			s2.245,1.009,2.245,2.249c0,0.906-0.713,2.247-2.245,2.247C92.052,33.744,91.041,32.736,91.041,31.497z M107.854,72.939
			c1.238,0,2.248,1.008,2.248,2.248c0,0.906-0.714,2.248-2.248,2.248c-1.241,0-2.25-1.008-2.25-2.248
			C105.604,73.947,106.612,72.939,107.854,72.939z"/>
	</g>
</g>
</svg>
